<svg width="397" height="125" viewBox="0 0 397 125" fill="none" xmlns="http://www.w3.org/2000/svg">
<path d="M134.188 92.7356C132.884 92.7356 131.634 92.2181 130.712 91.297C129.79 90.3759 129.272 89.1266 129.272 87.8239C129.272 74.2083 123.859 61.1503 114.223 51.5226C104.587 41.8948 91.5184 36.486 77.8913 36.486C64.2642 36.486 51.1952 41.8948 41.5594 51.5226C31.9236 61.1503 26.5102 74.2083 26.5102 87.8239C26.5291 88.4805 26.416 89.1343 26.1775 89.7464C25.9391 90.3585 25.5801 90.9167 25.122 91.3877C24.6638 91.8588 24.1158 92.2334 23.5102 92.4891C22.9046 92.7448 22.2539 92.8765 21.5965 92.8765C20.939 92.8765 20.2883 92.7448 19.6827 92.4891C19.0772 92.2334 18.5291 91.8588 18.071 91.3877C17.6128 90.9167 17.2539 90.3585 17.0154 89.7464C16.777 89.1343 16.6638 88.4805 16.6827 87.8239C16.6827 54.1017 44.1407 26.6667 77.8913 26.6667C111.642 26.6667 139.1 54.1017 139.1 87.8239C139.1 89.1259 138.583 90.3746 137.661 91.2956C136.74 92.2166 135.491 92.7345 134.188 92.7356Z" fill="#101820"/>
<path d="M105.981 92.6627H81.2076C80.6378 92.6625 80.0801 92.4984 79.6011 92.1901C79.122 91.8817 78.742 91.4421 78.5063 90.9237C78.2706 90.4054 78.1892 89.8302 78.2719 89.2669C78.3545 88.7035 78.5977 88.1759 78.9724 87.7469L82.2118 84.0167C85.5322 80.2136 88.8931 76.3295 92.1973 72.486L96.6515 67.3032C97.517 66.2716 98.7411 65.6052 100.078 65.4379C101.415 65.2705 102.766 65.6146 103.859 66.401C104.43 66.8311 104.907 67.3737 105.259 67.9953C105.612 68.6168 105.833 69.3041 105.909 70.0145C105.985 70.7249 105.914 71.4433 105.701 72.1252C105.487 72.8072 105.136 73.4381 104.669 73.9789C103.163 75.7213 101.64 77.4894 100.101 79.283L97.5666 82.2284H106.123C106.838 82.2285 107.545 82.3752 108.201 82.6595C108.857 82.9438 109.447 83.3595 109.936 83.881C110.424 84.4025 110.8 85.0186 111.041 85.6913C111.281 86.3639 111.381 87.0787 111.334 87.7915C111.216 89.1264 110.6 90.3683 109.609 91.2707C108.617 92.173 107.322 92.6699 105.981 92.6627Z" fill="#14141E"/>
<path d="M55.0007 99.3871C53.714 99.3887 52.4721 98.9146 51.5143 98.056C49.3722 96.1343 49.2993 92.7964 51.1782 90.6157C52.6386 88.9191 54.1234 87.201 55.6324 85.4613L58.1672 82.5159H49.7691C48.4239 82.5336 47.1215 82.0434 46.1224 81.1433C45.1232 80.2433 44.5008 78.9996 44.3795 77.6609C44.3324 76.9479 44.4322 76.2329 44.6727 75.5601C44.9133 74.8872 45.2894 74.2708 45.7779 73.749C46.2663 73.2272 46.8568 72.8111 47.5126 72.5264C48.1685 72.2417 48.8758 72.0944 49.5909 72.0938H74.5424C75.1122 72.0939 75.67 72.258 76.149 72.5664C76.628 72.8747 77.0081 73.3143 77.2438 73.8327C77.4795 74.3511 77.5608 74.9262 77.4782 75.4896C77.3955 76.0529 77.1523 76.5805 76.7776 77.0095L73.5382 80.7438C70.2178 84.5469 66.8569 88.4309 63.5527 92.2705L58.9771 97.5867C58.484 98.1562 57.8732 98.6122 57.1867 98.923C56.5002 99.2338 55.7544 99.3922 55.0007 99.3871Z" fill="#14141E"/>
<path d="M375.431 48.4619C377.962 48.4619 379.395 47.321 380.152 46.3621C381.061 45.2597 381.56 43.8776 381.566 42.4498C381.563 40.9968 381.064 39.5881 380.152 38.4565C379.395 37.4976 377.962 36.3567 375.431 36.3567C372.9 36.3567 371.463 37.4976 370.709 38.4525C369.796 39.5853 369.296 40.9951 369.292 42.4498C369.3 43.8786 369.799 45.2614 370.705 46.3661C371.475 47.3169 372.896 48.4619 375.431 48.4619Z" fill="#14141E"/>
<path d="M184.265 82.1719H170.174C172.725 79.2548 175.357 76.2245 178.025 73.1456L187.744 61.9345C188.5 61.1191 188.921 60.0485 188.922 58.9365C188.937 58.2812 188.798 57.6314 188.517 57.039C188.228 56.4219 187.814 55.871 187.302 55.4207C186.469 54.7064 185.408 54.3107 184.31 54.304H160.103C159.483 54.2857 158.866 54.3919 158.288 54.6164C157.709 54.8408 157.182 55.179 156.737 55.6108C156.292 56.0426 155.938 56.5592 155.696 57.1301C155.455 57.7011 155.33 58.3146 155.33 58.9345C155.33 59.5544 155.455 60.168 155.696 60.7389C155.938 61.3098 156.292 61.8264 156.737 62.2582C157.182 62.69 157.709 63.0282 158.288 63.2526C158.866 63.4771 159.483 63.5833 160.103 63.565H174.082C171.514 66.5023 168.911 69.5084 166.311 72.5347C162.991 76.3971 159.771 80.1287 156.654 83.7295C156.245 84.1763 155.93 84.7007 155.729 85.2716C155.527 85.8424 155.443 86.448 155.48 87.0521C155.518 87.6563 155.677 88.2466 155.949 88.788C156.22 89.3293 156.597 89.8105 157.058 90.2029C157.856 90.9816 158.927 91.4172 160.043 91.4167H184.269C184.89 91.435 185.507 91.3288 186.085 91.1043C186.664 90.8799 187.191 90.5417 187.636 90.1099C188.081 89.6781 188.435 89.1615 188.677 88.5905C188.918 88.0196 189.043 87.4061 189.043 86.7862C189.043 86.1663 188.918 85.5528 188.677 84.9818C188.435 84.4109 188.081 83.8943 187.636 83.4625C187.191 83.0307 186.664 82.6925 186.085 82.4681C185.507 82.2436 184.89 82.1374 184.269 82.1557L184.265 82.1719Z" fill="#14141E"/>
<path d="M229.125 58.4822C227.333 56.8518 225.23 55.5996 222.942 54.8005C218.373 53.1995 213.391 53.2252 208.838 54.8733C207.937 55.1985 207.064 55.5963 206.227 56.0628V41.4977C206.245 40.8701 206.137 40.2451 205.91 39.6598C205.682 39.0746 205.339 38.5409 204.901 38.0904C204.464 37.64 203.94 37.2818 203.361 37.0373C202.782 36.7927 202.16 36.6667 201.532 36.6667C200.903 36.6667 200.281 36.7927 199.702 37.0373C199.123 37.2818 198.6 37.64 198.162 38.0904C197.724 38.5409 197.381 39.0746 197.153 39.6598C196.926 40.2451 196.818 40.8701 196.836 41.4977V73.2901C196.775 76.2607 197.351 79.2101 198.525 81.9401C199.558 84.2767 201.049 86.3829 202.91 88.1343C204.698 89.7855 206.807 91.0512 209.106 91.8525C213.558 93.4364 218.421 93.4364 222.873 91.8525C225.172 91.0586 227.285 89.806 229.085 88.1707C230.969 86.4268 232.469 84.3088 233.486 81.9523C235.694 76.4092 235.694 70.2317 233.486 64.6886C232.482 62.3385 230.996 60.2245 229.125 58.4822ZM225.76 73.3022C225.801 74.9265 225.518 76.5426 224.926 78.0561C224.442 79.2569 223.708 80.341 222.772 81.2361C221.895 82.053 220.852 82.6725 219.715 83.0527C217.315 83.8681 214.713 83.8681 212.313 83.0527C211.183 82.6674 210.148 82.0469 209.276 81.2321C208.331 80.3262 207.584 79.2353 207.081 78.0278C206.469 76.4843 206.178 74.8323 206.227 73.1727C206.184 71.5666 206.474 69.9689 207.077 68.4796C207.546 67.3374 208.257 66.3101 209.161 65.4679C210.065 64.6257 211.14 63.9887 212.313 63.6002C213.498 63.1956 214.741 62.9891 215.993 62.9893C217.267 62.9862 218.533 63.1926 219.739 63.6002C220.87 63.9842 221.908 64.5986 222.788 65.4047C223.719 66.2832 224.449 67.3529 224.926 68.5402C225.519 70.0561 225.803 71.6752 225.76 73.3022Z" fill="#14141E"/>
<path d="M269.838 58.0182C268.047 56.3869 265.943 55.1345 263.655 54.3365C259.178 52.7567 254.295 52.7567 249.819 54.3365C247.457 55.1484 245.292 56.4461 243.463 58.1457C241.634 59.8454 240.183 61.9093 239.202 64.2043C238.053 66.9337 237.49 69.8737 237.549 72.8341C237.49 75.8051 238.067 78.7543 239.242 81.4842C240.274 83.8216 241.765 85.9281 243.627 87.6784C245.413 89.3303 247.521 90.5961 249.819 91.3965C254.271 92.9805 259.134 92.9805 263.586 91.3965C265.889 90.5941 268.003 89.3318 269.802 87.6865C271.686 85.9426 273.186 83.8245 274.203 81.468C276.411 75.9235 276.411 69.7448 274.203 64.2003C273.196 61.8581 271.709 59.7523 269.838 58.0182ZM266.477 72.8382C266.511 74.4634 266.222 76.0792 265.627 77.5921C265.142 78.7931 264.406 79.8772 263.469 80.7721C262.593 81.5889 261.552 82.2084 260.416 82.5887C258.014 83.4038 255.411 83.4038 253.009 82.5887C251.88 82.2043 250.846 81.5836 249.977 80.7681C249.03 79.8635 248.281 78.7724 247.778 77.5637C247.172 76.0608 246.882 74.4497 246.924 72.8301C246.884 71.2059 247.168 69.5901 247.758 68.0762C248.235 66.8879 248.966 65.8178 249.9 64.9407C250.786 64.1327 251.831 63.5194 252.969 63.1403C255.382 62.3203 257.999 62.3203 260.412 63.1403C261.551 63.5183 262.598 64.1317 263.485 64.9407C264.419 65.8178 265.15 66.8879 265.627 68.0762C266.218 69.5926 266.502 71.2113 266.461 72.8382H266.477Z" fill="#14141E"/>
<path d="M313.518 58.0182C311.726 56.3878 309.622 55.1355 307.334 54.3365C302.858 52.7567 297.975 52.7567 293.498 54.3365C291.136 55.1484 288.971 56.4461 287.143 58.1457C285.314 59.8454 283.862 61.9093 282.881 64.2043C281.731 66.9334 281.166 69.8734 281.225 72.8341C281.166 75.8051 281.743 78.7543 282.917 81.4842C283.949 83.8216 285.44 85.9281 287.303 87.6784C289.089 89.3313 291.199 90.5971 293.498 91.3965C297.95 92.9805 302.813 92.9805 307.266 91.3965C309.569 90.6002 311.686 89.3449 313.489 87.7067C315.371 85.9606 316.87 83.8431 317.891 81.4882C320.094 75.9427 320.094 69.766 317.891 64.2205C316.88 61.8719 315.391 59.7596 313.518 58.0182ZM310.153 72.8382C310.194 74.4625 309.91 76.0787 309.319 77.5921C308.833 78.7921 308.099 79.8758 307.164 80.7721C306.287 81.589 305.245 82.2084 304.107 82.5887C301.706 83.4038 299.102 83.4038 296.701 82.5887C295.573 82.2024 294.539 81.582 293.668 80.7681C292.722 79.8633 291.975 78.7722 291.474 77.5637C290.868 76.0608 290.577 74.4497 290.619 72.8301C290.578 71.2058 290.861 69.5896 291.453 68.0762C291.931 66.8889 292.66 65.8192 293.591 64.9407C294.478 64.1317 295.525 63.5183 296.665 63.1403C299.078 62.3203 301.694 62.3203 304.107 63.1403C305.246 63.5174 306.292 64.1309 307.177 64.9407C308.11 65.8178 308.841 66.8879 309.319 68.0762C309.912 69.5921 310.195 71.2112 310.153 72.8382Z" fill="#14141E"/>
<path d="M357.047 57.9859C355.245 56.3416 353.128 55.0795 350.823 54.2759C346.36 52.6981 341.491 52.6981 337.028 54.2759C334.726 55.0781 332.614 56.3451 330.824 57.9981C328.96 59.7459 327.467 61.8512 326.435 64.1882C325.257 66.9173 324.678 69.8669 324.738 72.8383V87.901C324.72 88.5287 324.827 89.1536 325.055 89.7389C325.283 90.3242 325.626 90.8578 326.063 91.3083C326.501 91.7588 327.025 92.1169 327.604 92.3615C328.183 92.606 328.805 92.732 329.433 92.732C330.062 92.732 330.684 92.606 331.263 92.3615C331.841 92.1169 332.365 91.7588 332.803 91.3083C333.241 90.8578 333.584 90.3242 333.811 89.7389C334.039 89.1536 334.147 88.5287 334.128 87.901V72.8383C334.087 71.2187 334.377 69.6077 334.983 68.1046C335.487 66.8978 336.235 65.8082 337.181 64.9044C338.051 64.0888 339.085 63.4681 340.214 63.0837C342.614 62.2683 345.217 62.2683 347.616 63.0837C348.754 63.4625 349.797 64.0821 350.674 64.9003C351.618 65.8043 352.366 66.8939 352.868 68.1006C353.476 69.603 353.768 71.2142 353.727 72.8342V87.897C353.721 88.5062 353.835 89.1107 354.062 89.6758C354.29 90.2409 354.628 90.7556 355.055 91.1903C355.486 91.639 356.004 91.9945 356.578 92.2346C357.152 92.4747 357.769 92.5944 358.391 92.5861C359.01 92.5917 359.623 92.474 360.195 92.2399C360.767 92.0058 361.287 91.66 361.724 91.2227C362.169 90.791 362.522 90.2738 362.761 89.7023C363.001 89.1307 363.122 88.5166 363.117 87.897V72.8383C363.175 69.8763 362.611 66.9351 361.461 64.2044C360.439 61.8472 358.936 59.7292 357.047 57.9859Z" fill="#14141E"/>
<path d="M378.525 54.5306C377.868 53.8746 377.031 53.428 376.12 53.2471C375.209 53.0661 374.265 53.1591 373.407 53.5141C372.549 53.8692 371.816 54.4704 371.299 55.2418C370.783 56.0133 370.508 56.9203 370.507 57.8482V87.8968C370.489 88.5244 370.596 89.1494 370.824 89.7347C371.052 90.3199 371.395 90.8536 371.833 91.3041C372.27 91.7546 372.794 92.1127 373.373 92.3572C373.952 92.6018 374.574 92.7278 375.202 92.7278C375.831 92.7278 376.453 92.6018 377.032 92.3572C377.61 92.1127 378.134 91.7546 378.572 91.3041C379.01 90.8536 379.353 90.3199 379.58 89.7347C379.808 89.1494 379.916 88.5244 379.897 87.8968V57.8523C379.903 57.2349 379.785 56.6226 379.549 56.0519C379.313 55.4813 378.965 54.9639 378.525 54.5306Z" fill="#14141E"/>
</svg>
